<svg width="91" height="16" viewBox="0 0 91 16" fill="none" xmlns="http://www.w3.org/2000/svg">
<path d="M0.3 0.2H3.26V6.56H3.38C3.5 6.26667 3.64667 5.99333 3.82 5.74C3.99333 5.48667 4.2 5.26667 4.44 5.08C4.69333 4.88 4.98 4.72667 5.3 4.62C5.63333 4.5 6.00667 4.44 6.42 4.44C6.91333 4.44 7.36667 4.52667 7.78 4.7C8.19333 4.86 8.54667 5.10667 8.84 5.44C9.13333 5.77333 9.36 6.18 9.52 6.66C9.69333 7.14 9.78 7.69333 9.78 8.32V15H6.82V8.72C6.82 7.38667 6.24 6.72 5.08 6.72C4.85333 6.72 4.62667 6.75333 4.4 6.82C4.18667 6.87333 3.99333 6.96667 3.82 7.1C3.64667 7.22 3.50667 7.37333 3.4 7.56C3.30667 7.74667 3.26 7.96667 3.26 8.22V15H0.3V0.2ZM17.2722 15.24C15.5389 15.24 14.2255 14.76 13.3322 13.8C12.4389 12.84 11.9922 11.5333 11.9922 9.88C11.9922 9.04 12.1055 8.28667 12.3322 7.62C12.5722 6.94 12.9055 6.36667 13.3322 5.9C13.7722 5.42 14.2989 5.06 14.9122 4.82C15.5389 4.56667 16.2389 4.44 17.0122 4.44C17.7855 4.44 18.4789 4.56667 19.0922 4.82C19.7055 5.06 20.2255 5.40667 20.6522 5.86C21.0789 6.31333 21.4055 6.86667 21.6322 7.52C21.8722 8.16 21.9922 8.88 21.9922 9.68V10.56H14.9322V10.74C14.9322 11.4067 15.1389 11.9467 15.5522 12.36C15.9655 12.76 16.5722 12.96 17.3722 12.96C17.9855 12.96 18.5122 12.8467 18.9522 12.62C19.3922 12.38 19.7722 12.0667 20.0922 11.68L21.6922 13.42C21.2922 13.9133 20.7322 14.34 20.0122 14.7C19.2922 15.06 18.3789 15.24 17.2722 15.24ZM17.0322 6.56C16.3922 6.56 15.8789 6.76 15.4922 7.16C15.1189 7.54667 14.9322 8.07333 14.9322 8.74V8.9H19.0922V8.74C19.0922 8.06 18.9055 7.52667 18.5322 7.14C18.1722 6.75333 17.6722 6.56 17.0322 6.56ZM30.7244 13.12H30.6044C30.3777 13.7067 30.0177 14.2067 29.5244 14.62C29.0444 15.0333 28.391 15.24 27.5644 15.24C27.071 15.24 26.6177 15.16 26.2044 15C25.791 14.8267 25.4377 14.5733 25.1444 14.24C24.851 13.9067 24.6177 13.5 24.4444 13.02C24.2844 12.54 24.2044 11.9867 24.2044 11.36V4.68H27.1644V10.96C27.1644 12.2933 27.7444 12.96 28.9044 12.96C29.131 12.96 29.351 12.9333 29.5644 12.88C29.791 12.8133 29.9844 12.72 30.1444 12.6C30.3177 12.4667 30.4577 12.3067 30.5644 12.12C30.671 11.9333 30.7244 11.7133 30.7244 11.46V4.68H33.6844V15H30.7244V13.12ZM36.4566 12.7H38.8366V6.98H36.4566V4.68H41.7966V7.6H41.9366C42.0299 7.22667 42.1566 6.86667 42.3166 6.52C42.4899 6.16 42.7032 5.84667 42.9566 5.58C43.2232 5.3 43.5432 5.08 43.9166 4.92C44.2899 4.76 44.7299 4.68 45.2366 4.68H46.2166V7.4H44.0166C43.2832 7.4 42.7299 7.62 42.3566 8.06C41.9832 8.48667 41.7966 9.01333 41.7966 9.64V12.7H45.1966V15H36.4566V12.7ZM53.2488 15.24C51.5154 15.24 50.2021 14.76 49.3088 13.8C48.4154 12.84 47.9688 11.5333 47.9688 9.88C47.9688 9.04 48.0821 8.28667 48.3088 7.62C48.5488 6.94 48.8821 6.36667 49.3088 5.9C49.7488 5.42 50.2754 5.06 50.8888 4.82C51.5154 4.56667 52.2154 4.44 52.9888 4.44C53.7621 4.44 54.4554 4.56667 55.0688 4.82C55.6821 5.06 56.2021 5.40667 56.6288 5.86C57.0554 6.31333 57.3821 6.86667 57.6088 7.52C57.8488 8.16 57.9688 8.88 57.9688 9.68V10.56H50.9088V10.74C50.9088 11.4067 51.1154 11.9467 51.5288 12.36C51.9421 12.76 52.5488 12.96 53.3488 12.96C53.9621 12.96 54.4888 12.8467 54.9288 12.62C55.3688 12.38 55.7488 12.0667 56.0688 11.68L57.6688 13.42C57.2688 13.9133 56.7088 14.34 55.9888 14.7C55.2688 15.06 54.3554 15.24 53.2488 15.24ZM53.0088 6.56C52.3688 6.56 51.8554 6.76 51.4688 7.16C51.0954 7.54667 50.9088 8.07333 50.9088 8.74V8.9H55.0688V8.74C55.0688 8.06 54.8821 7.52667 54.5088 7.14C54.1488 6.75333 53.6488 6.56 53.0088 6.56ZM60.2609 0.2H63.2209V8.6H63.3609L64.7409 6.98L66.9009 4.68H70.3009L66.3009 8.76L70.7209 15H67.2009L64.2009 10.44L63.2209 11.42V15H60.2609V0.2ZM80.6931 15C80.0798 15 79.5865 14.8467 79.2131 14.54C78.8398 14.22 78.6198 13.7667 78.5531 13.18H78.4531C78.2665 13.86 77.8931 14.3733 77.3331 14.72C76.7865 15.0667 76.1131 15.24 75.3131 15.24C74.3131 15.24 73.5065 14.9733 72.8931 14.44C72.2931 13.8933 71.9931 13.1333 71.9931 12.16C71.9931 11.08 72.3865 10.28 73.1731 9.76C73.9598 9.24 75.1131 8.98 76.6331 8.98H78.2931V8.46C78.2931 7.84667 78.1465 7.38667 77.8531 7.08C77.5731 6.76 77.0931 6.6 76.4131 6.6C75.7865 6.6 75.2798 6.72 74.8931 6.96C74.5065 7.2 74.1731 7.51333 73.8931 7.9L72.2731 6.46C72.6198 5.87333 73.1598 5.39333 73.8931 5.02C74.6398 4.63333 75.5931 4.44 76.7531 4.44C78.1665 4.44 79.2665 4.76667 80.0531 5.42C80.8531 6.06 81.2531 7.03333 81.2531 8.34V12.86H82.3931V15H80.6931ZM76.4331 13.3C76.9531 13.3 77.3931 13.1733 77.7531 12.92C78.1131 12.6667 78.2931 12.3 78.2931 11.82V10.58H76.7131C75.4998 10.58 74.8931 10.9867 74.8931 11.8V12.2C74.8931 12.56 75.0331 12.8333 75.3131 13.02C75.5931 13.2067 75.9665 13.3 76.4331 13.3Z" fill="white"/>
<path d="M88.4653 10.14L87.3253 5.1V1.04H90.5653V5.1L89.4253 10.14H88.4653ZM88.9453 15.24C88.2253 15.24 87.7186 15.0867 87.4253 14.78C87.132 14.4733 86.9853 14.1067 86.9853 13.68V13.04C86.9853 12.6267 87.132 12.2667 87.4253 11.96C87.732 11.6533 88.2386 11.5 88.9453 11.5C89.652 11.5 90.152 11.6533 90.4453 11.96C90.752 12.2667 90.9053 12.6267 90.9053 13.04V13.68C90.9053 14.1067 90.7586 14.4733 90.4653 14.78C90.172 15.0867 89.6653 15.24 88.9453 15.24Z" fill="#FF9900"/>
</svg>
