<svg width="182" height="31" viewBox="0 0 182 31" fill="none" xmlns="http://www.w3.org/2000/svg">
<path d="M0.6 0.4H6.52V13.12H6.76C7 12.5333 7.29333 11.9867 7.64 11.48C7.98667 10.9733 8.4 10.5333 8.88 10.16C9.38667 9.76 9.96 9.45333 10.6 9.24C11.2667 9 12.0133 8.88 12.84 8.88C13.8267 8.88 14.7333 9.05333 15.56 9.4C16.3867 9.72 17.0933 10.2133 17.68 10.88C18.2667 11.5467 18.72 12.36 19.04 13.32C19.3867 14.28 19.56 15.3867 19.56 16.64V30H13.64V17.44C13.64 14.7733 12.48 13.44 10.16 13.44C9.70667 13.44 9.25333 13.5067 8.8 13.64C8.37333 13.7467 7.98667 13.9333 7.64 14.2C7.29333 14.44 7.01333 14.7467 6.8 15.12C6.61333 15.4933 6.52 15.9333 6.52 16.44V30H0.6V0.4ZM34.5444 30.48C31.0777 30.48 28.451 29.52 26.6644 27.6C24.8777 25.68 23.9844 23.0667 23.9844 19.76C23.9844 18.08 24.211 16.5733 24.6644 15.24C25.1444 13.88 25.811 12.7333 26.6644 11.8C27.5444 10.84 28.5977 10.12 29.8244 9.64C31.0777 9.13333 32.4777 8.88 34.0244 8.88C35.571 8.88 36.9577 9.13333 38.1844 9.64C39.411 10.12 40.451 10.8133 41.3044 11.72C42.1577 12.6267 42.811 13.7333 43.2644 15.04C43.7444 16.32 43.9844 17.76 43.9844 19.36V21.12H29.8644V21.48C29.8644 22.8133 30.2777 23.8933 31.1044 24.72C31.931 25.52 33.1444 25.92 34.7444 25.92C35.971 25.92 37.0244 25.6933 37.9044 25.24C38.7844 24.76 39.5444 24.1333 40.1844 23.36L43.3844 26.84C42.5844 27.8267 41.4644 28.68 40.0244 29.4C38.5844 30.12 36.7577 30.48 34.5444 30.48ZM34.0644 13.12C32.7844 13.12 31.7577 13.52 30.9844 14.32C30.2377 15.0933 29.8644 16.1467 29.8644 17.48V17.8H38.1844V17.48C38.1844 16.12 37.811 15.0533 37.0644 14.28C36.3444 13.5067 35.3444 13.12 34.0644 13.12ZM61.4488 26.24H61.2088C60.7554 27.4133 60.0354 28.4133 59.0488 29.24C58.0888 30.0667 56.7821 30.48 55.1288 30.48C54.1421 30.48 53.2354 30.32 52.4088 30C51.5821 29.6533 50.8754 29.1467 50.2888 28.48C49.7021 27.8133 49.2354 27 48.8888 26.04C48.5688 25.08 48.4088 23.9733 48.4088 22.72V9.36H54.3288V21.92C54.3288 24.5867 55.4888 25.92 57.8088 25.92C58.2621 25.92 58.7021 25.8667 59.1288 25.76C59.5821 25.6267 59.9688 25.44 60.2888 25.2C60.6354 24.9333 60.9154 24.6133 61.1288 24.24C61.3421 23.8667 61.4488 23.4267 61.4488 22.92V9.36H67.3688V30H61.4488V26.24ZM72.9131 25.4H77.6731V13.96H72.9131V9.36H83.5931V15.2H83.8731C84.0598 14.4533 84.3131 13.7333 84.6331 13.04C84.9798 12.32 85.4065 11.6933 85.9131 11.16C86.4465 10.6 87.0865 10.16 87.8331 9.84C88.5798 9.52 89.4598 9.36 90.4731 9.36H92.4331V14.8H88.0331C86.5665 14.8 85.4598 15.24 84.7131 16.12C83.9665 16.9733 83.5931 18.0267 83.5931 19.28V25.4H90.3931V30H72.9131V25.4ZM106.498 30.48C103.031 30.48 100.404 29.52 98.6175 27.6C96.8308 25.68 95.9375 23.0667 95.9375 19.76C95.9375 18.08 96.1642 16.5733 96.6175 15.24C97.0975 13.88 97.7642 12.7333 98.6175 11.8C99.4975 10.84 100.551 10.12 101.778 9.64C103.031 9.13333 104.431 8.88 105.978 8.88C107.524 8.88 108.911 9.13333 110.138 9.64C111.364 10.12 112.404 10.8133 113.258 11.72C114.111 12.6267 114.764 13.7333 115.218 15.04C115.698 16.32 115.938 17.76 115.938 19.36V21.12H101.818V21.48C101.818 22.8133 102.231 23.8933 103.058 24.72C103.884 25.52 105.098 25.92 106.698 25.92C107.924 25.92 108.978 25.6933 109.858 25.24C110.738 24.76 111.498 24.1333 112.138 23.36L115.338 26.84C114.538 27.8267 113.418 28.68 111.978 29.4C110.538 30.12 108.711 30.48 106.498 30.48ZM106.018 13.12C104.738 13.12 103.711 13.52 102.938 14.32C102.191 15.0933 101.818 16.1467 101.818 17.48V17.8H110.138V17.48C110.138 16.12 109.764 15.0533 109.018 14.28C108.298 13.5067 107.298 13.12 106.018 13.12ZM120.522 0.4H126.442V17.2H126.722L129.482 13.96L133.802 9.36H140.602L132.602 17.52L141.442 30H134.402L128.402 20.88L126.442 22.84V30H120.522V0.4ZM161.386 30C160.16 30 159.173 29.6933 158.426 29.08C157.68 28.44 157.24 27.5333 157.106 26.36H156.906C156.533 27.72 155.786 28.7467 154.666 29.44C153.573 30.1333 152.226 30.48 150.626 30.48C148.626 30.48 147.013 29.9467 145.786 28.88C144.586 27.7867 143.986 26.2667 143.986 24.32C143.986 22.16 144.773 20.56 146.346 19.52C147.92 18.48 150.226 17.96 153.266 17.96H156.586V16.92C156.586 15.6933 156.293 14.7733 155.706 14.16C155.146 13.52 154.186 13.2 152.826 13.2C151.573 13.2 150.56 13.44 149.786 13.92C149.013 14.4 148.346 15.0267 147.786 15.8L144.546 12.92C145.24 11.7467 146.32 10.7867 147.786 10.04C149.28 9.26667 151.186 8.88 153.506 8.88C156.333 8.88 158.533 9.53333 160.106 10.84C161.706 12.12 162.506 14.0667 162.506 16.68V25.72H164.786V30H161.386ZM152.866 26.6C153.906 26.6 154.786 26.3467 155.506 25.84C156.226 25.3333 156.586 24.6 156.586 23.64V21.16H153.426C151 21.16 149.786 21.9733 149.786 23.6V24.4C149.786 25.12 150.066 25.6667 150.626 26.04C151.186 26.4133 151.933 26.6 152.866 26.6Z" fill="white"/>
<path d="M176.931 20.28L174.651 10.2V2.08H181.131V10.2L178.851 20.28H176.931ZM177.891 30.48C176.451 30.48 175.437 30.1733 174.851 29.56C174.264 28.9467 173.971 28.2133 173.971 27.36V26.08C173.971 25.2533 174.264 24.5333 174.851 23.92C175.464 23.3067 176.477 23 177.891 23C179.304 23 180.304 23.3067 180.891 23.92C181.504 24.5333 181.811 25.2533 181.811 26.08V27.36C181.811 28.2133 181.517 28.9467 180.931 29.56C180.344 30.1733 179.331 30.48 177.891 30.48Z" fill="#FF9900"/>
</svg>
